<svg xmlns="http://www.w3.org/2000/svg" width="760" height="460" viewBox="0 0 760 460" font-family="Helvetica,Arial,sans-serif">
<rect width="760" height="460" fill="#ffffff"/>
<text x="380" y="28" text-anchor="middle" font-size="17" font-weight="600">Q6 - Execution time vs processes</text>
<line x1="78" y1="398" x2="550" y2="398" stroke="#e2e2e2" stroke-width="1"/>
<text x="69" y="402" text-anchor="end" font-size="11" fill="#444">1.3e-03</text>
<line x1="78" y1="328.8" x2="550" y2="328.8" stroke="#e2e2e2" stroke-width="1"/>
<text x="69" y="332.8" text-anchor="end" font-size="11" fill="#444">3.2e-03</text>
<line x1="78" y1="259.6" x2="550" y2="259.6" stroke="#e2e2e2" stroke-width="1"/>
<text x="69" y="263.6" text-anchor="end" font-size="11" fill="#444">7.9e-03</text>
<line x1="78" y1="190.4" x2="550" y2="190.4" stroke="#e2e2e2" stroke-width="1"/>
<text x="69" y="194.4" text-anchor="end" font-size="11" fill="#444">1.9e-02</text>
<line x1="78" y1="121.2" x2="550" y2="121.2" stroke="#e2e2e2" stroke-width="1"/>
<text x="69" y="125.2" text-anchor="end" font-size="11" fill="#444">4.7e-02</text>
<line x1="78" y1="52" x2="550" y2="52" stroke="#e2e2e2" stroke-width="1"/>
<text x="69" y="56" text-anchor="end" font-size="11" fill="#444">1.2e-01</text>
<line x1="78" y1="52" x2="78" y2="398" stroke="#f0f0f0" stroke-width="1"/>
<text x="78" y="418" text-anchor="middle" font-size="12" fill="#444">1</text>
<line x1="145.429" y1="52" x2="145.429" y2="398" stroke="#f0f0f0" stroke-width="1"/>
<text x="145.429" y="418" text-anchor="middle" font-size="12" fill="#444">2</text>
<line x1="280.286" y1="52" x2="280.286" y2="398" stroke="#f0f0f0" stroke-width="1"/>
<text x="280.286" y="418" text-anchor="middle" font-size="12" fill="#444">4</text>
<line x1="550" y1="52" x2="550" y2="398" stroke="#f0f0f0" stroke-width="1"/>
<text x="550" y="418" text-anchor="middle" font-size="12" fill="#444">8</text>
<line x1="78" y1="52" x2="78" y2="398" stroke="#333" stroke-width="1.4"/>
<line x1="78" y1="398" x2="550" y2="398" stroke="#333" stroke-width="1.4"/>
<text x="314" y="444" text-anchor="middle" font-size="13">Number of MPI processes (P)</text>
<text x="18" y="225" text-anchor="middle" font-size="13" transform="rotate(-90 18 225)">t_algo (s, log scale)</text>
<polyline fill="none" stroke="#2f6fb5" stroke-width="2.2" points="78,395.224 145.429,371.919 280.286,398 550,230.769 "/>
<circle cx="78" cy="395.224" r="3.4" fill="#2f6fb5"/>
<circle cx="145.429" cy="371.919" r="3.4" fill="#2f6fb5"/>
<circle cx="280.286" cy="398" r="3.4" fill="#2f6fb5"/>
<circle cx="550" cy="230.769" r="3.4" fill="#2f6fb5"/>
<polyline fill="none" stroke="#c1492e" stroke-width="2.2" points="78,267.448 145.429,288.902 280.286,278.738 550,197.8 "/>
<circle cx="78" cy="267.448" r="3.4" fill="#c1492e"/>
<circle cx="145.429" cy="288.902" r="3.4" fill="#c1492e"/>
<circle cx="280.286" cy="278.738" r="3.4" fill="#c1492e"/>
<circle cx="550" cy="197.8" r="3.4" fill="#c1492e"/>
<polyline fill="none" stroke="#3f8f56" stroke-width="2.2" points="78,218.122 145.429,238.382 280.286,225.101 550,174.238 "/>
<circle cx="78" cy="218.122" r="3.4" fill="#3f8f56"/>
<circle cx="145.429" cy="238.382" r="3.4" fill="#3f8f56"/>
<circle cx="280.286" cy="225.101" r="3.4" fill="#3f8f56"/>
<circle cx="550" cy="174.238" r="3.4" fill="#3f8f56"/>
<polyline fill="none" stroke="#8a5fb0" stroke-width="2.2" points="78,213.797 145.429,255.866 280.286,238.1 550,186.804 "/>
<circle cx="78" cy="213.797" r="3.4" fill="#8a5fb0"/>
<circle cx="145.429" cy="255.866" r="3.4" fill="#8a5fb0"/>
<circle cx="280.286" cy="238.1" r="3.4" fill="#8a5fb0"/>
<circle cx="550" cy="186.804" r="3.4" fill="#8a5fb0"/>
<polyline fill="none" stroke="#c98a1e" stroke-width="2.2" points="78,376.504 145.429,326.058 280.286,287.935 550,167.455 "/>
<circle cx="78" cy="376.504" r="3.4" fill="#c98a1e"/>
<circle cx="145.429" cy="326.058" r="3.4" fill="#c98a1e"/>
<circle cx="280.286" cy="287.935" r="3.4" fill="#c98a1e"/>
<circle cx="550" cy="167.455" r="3.4" fill="#c98a1e"/>
<polyline fill="none" stroke="#3a9ba8" stroke-width="2.2" points="78,311.74 145.429,208.033 280.286,188.463 550,71.5849 "/>
<circle cx="78" cy="311.74" r="3.4" fill="#3a9ba8"/>
<circle cx="145.429" cy="208.033" r="3.4" fill="#3a9ba8"/>
<circle cx="280.286" cy="188.463" r="3.4" fill="#3a9ba8"/>
<circle cx="550" cy="71.5849" r="3.4" fill="#3a9ba8"/>
<polyline fill="none" stroke="#a3486f" stroke-width="2.2" points="78,311.452 145.429,295.707 280.286,283.193 550,170.756 "/>
<circle cx="78" cy="311.452" r="3.4" fill="#a3486f"/>
<circle cx="145.429" cy="295.707" r="3.4" fill="#a3486f"/>
<circle cx="280.286" cy="283.193" r="3.4" fill="#a3486f"/>
<circle cx="550" cy="170.756" r="3.4" fill="#a3486f"/>
<line x1="566" y1="58" x2="590" y2="58" stroke="#2f6fb5" stroke-width="2.6"/>
<text x="596" y="62" font-size="11" fill="#222">small</text>
<line x1="566" y1="77" x2="590" y2="77" stroke="#c1492e" stroke-width="2.6"/>
<text x="596" y="81" font-size="11" fill="#222">medium</text>
<line x1="566" y1="96" x2="590" y2="96" stroke="#3f8f56" stroke-width="2.6"/>
<text x="596" y="100" font-size="11" fill="#222">large</text>
<line x1="566" y1="115" x2="590" y2="115" stroke="#8a5fb0" stroke-width="2.6"/>
<text x="596" y="119" font-size="11" fill="#222">verylarge</text>
<line x1="566" y1="134" x2="590" y2="134" stroke="#c98a1e" stroke-width="2.6"/>
<text x="596" y="138" font-size="11" fill="#222">path</text>
<line x1="566" y1="153" x2="590" y2="153" stroke="#3a9ba8" stroke-width="2.6"/>
<text x="596" y="157" font-size="11" fill="#222">shuffled</text>
<line x1="566" y1="172" x2="590" y2="172" stroke="#a3486f" stroke-width="2.6"/>
<text x="596" y="176" font-size="11" fill="#222">chain</text>
</svg>
