<svg xmlns="http://www.w3.org/2000/svg" width="760" height="460" viewBox="0 0 760 460" font-family="Helvetica,Arial,sans-serif">
<rect width="760" height="460" fill="#ffffff"/>
<text x="380" y="28" text-anchor="middle" font-size="17" font-weight="600">Q1 - Efficiency vs processes</text>
<line x1="78" y1="398" x2="550" y2="398" stroke="#e2e2e2" stroke-width="1"/>
<text x="69" y="402" text-anchor="end" font-size="11" fill="#444">0.00</text>
<line x1="78" y1="328.8" x2="550" y2="328.8" stroke="#e2e2e2" stroke-width="1"/>
<text x="69" y="332.8" text-anchor="end" font-size="11" fill="#444">2.1e-01</text>
<line x1="78" y1="259.6" x2="550" y2="259.6" stroke="#e2e2e2" stroke-width="1"/>
<text x="69" y="263.6" text-anchor="end" font-size="11" fill="#444">4.2e-01</text>
<line x1="78" y1="190.4" x2="550" y2="190.4" stroke="#e2e2e2" stroke-width="1"/>
<text x="69" y="194.4" text-anchor="end" font-size="11" fill="#444">6.4e-01</text>
<line x1="78" y1="121.2" x2="550" y2="121.2" stroke="#e2e2e2" stroke-width="1"/>
<text x="69" y="125.2" text-anchor="end" font-size="11" fill="#444">8.5e-01</text>
<line x1="78" y1="52" x2="550" y2="52" stroke="#e2e2e2" stroke-width="1"/>
<text x="69" y="56" text-anchor="end" font-size="11" fill="#444">1.1e+00</text>
<line x1="78" y1="52" x2="78" y2="398" stroke="#f0f0f0" stroke-width="1"/>
<text x="78" y="418" text-anchor="middle" font-size="12" fill="#444">1</text>
<line x1="145.429" y1="52" x2="145.429" y2="398" stroke="#f0f0f0" stroke-width="1"/>
<text x="145.429" y="418" text-anchor="middle" font-size="12" fill="#444">2</text>
<line x1="280.286" y1="52" x2="280.286" y2="398" stroke="#f0f0f0" stroke-width="1"/>
<text x="280.286" y="418" text-anchor="middle" font-size="12" fill="#444">4</text>
<line x1="550" y1="52" x2="550" y2="398" stroke="#f0f0f0" stroke-width="1"/>
<text x="550" y="418" text-anchor="middle" font-size="12" fill="#444">8</text>
<line x1="78" y1="52" x2="78" y2="398" stroke="#333" stroke-width="1.4"/>
<line x1="78" y1="398" x2="550" y2="398" stroke="#333" stroke-width="1.4"/>
<text x="314" y="444" text-anchor="middle" font-size="13">Number of MPI processes (P)</text>
<text x="18" y="225" text-anchor="middle" font-size="13" transform="rotate(-90 18 225)">Efficiency  E(P)</text>
<polyline fill="none" stroke="#2f6fb5" stroke-width="2.2" points="78,71.5849 145.429,246.063 280.286,291.738 550,386.668 "/>
<circle cx="78" cy="71.5849" r="3.4" fill="#2f6fb5"/>
<circle cx="145.429" cy="246.063" r="3.4" fill="#2f6fb5"/>
<circle cx="280.286" cy="291.738" r="3.4" fill="#2f6fb5"/>
<circle cx="550" cy="386.668" r="3.4" fill="#2f6fb5"/>
<polyline fill="none" stroke="#c1492e" stroke-width="2.2" points="78,71.5849 145.429,238.32 280.286,260.319 550,364.868 "/>
<circle cx="78" cy="71.5849" r="3.4" fill="#c1492e"/>
<circle cx="145.429" cy="238.32" r="3.4" fill="#c1492e"/>
<circle cx="280.286" cy="260.319" r="3.4" fill="#c1492e"/>
<circle cx="550" cy="364.868" r="3.4" fill="#c1492e"/>
<polyline fill="none" stroke="#3f8f56" stroke-width="2.2" points="78,71.5849 145.429,83.4908 280.286,244.45 550,308.79 "/>
<circle cx="78" cy="71.5849" r="3.4" fill="#3f8f56"/>
<circle cx="145.429" cy="83.4908" r="3.4" fill="#3f8f56"/>
<circle cx="280.286" cy="244.45" r="3.4" fill="#3f8f56"/>
<circle cx="550" cy="308.79" r="3.4" fill="#3f8f56"/>
<polyline fill="none" stroke="#8a5fb0" stroke-width="2.2" points="78,71.5849 145.429,110.715 280.286,275.744 550,368.336 "/>
<circle cx="78" cy="71.5849" r="3.4" fill="#8a5fb0"/>
<circle cx="145.429" cy="110.715" r="3.4" fill="#8a5fb0"/>
<circle cx="280.286" cy="275.744" r="3.4" fill="#8a5fb0"/>
<circle cx="550" cy="368.336" r="3.4" fill="#8a5fb0"/>
<polyline fill="none" stroke="#c98a1e" stroke-width="2.2" points="78,71.5849 145.429,85.9345 280.286,243.832 550,309.856 "/>
<circle cx="78" cy="71.5849" r="3.4" fill="#c98a1e"/>
<circle cx="145.429" cy="85.9345" r="3.4" fill="#c98a1e"/>
<circle cx="280.286" cy="243.832" r="3.4" fill="#c98a1e"/>
<circle cx="550" cy="309.856" r="3.4" fill="#c98a1e"/>
<line x1="566" y1="58" x2="590" y2="58" stroke="#2f6fb5" stroke-width="2.6"/>
<text x="596" y="62" font-size="11" fill="#222">small (256x256x256)</text>
<line x1="566" y1="77" x2="590" y2="77" stroke="#c1492e" stroke-width="2.6"/>
<text x="596" y="81" font-size="11" fill="#222">medium (512x512x512)</text>
<line x1="566" y1="96" x2="590" y2="96" stroke="#3f8f56" stroke-width="2.6"/>
<text x="596" y="100" font-size="11" fill="#222">large (1024x1024x1024)</text>
<line x1="566" y1="115" x2="590" y2="115" stroke="#8a5fb0" stroke-width="2.6"/>
<text x="596" y="119" font-size="11" fill="#222">skew_wide (128x1024x1024)</text>
<line x1="566" y1="134" x2="590" y2="134" stroke="#c98a1e" stroke-width="2.6"/>
<text x="596" y="138" font-size="11" fill="#222">uneven (1000x999x997)</text>
</svg>
